<svg  xmlns="http://www.w3.org/2000/svg" xmlns:xlink="http://www.w3.org/1999/xlink" width="15px" height="16px"><path fill-rule="evenodd"  fill="rgb(255, 29, 29)" d="M13.000,7.000 L13.000,6.000 L15.000,6.000 L15.000,7.000 L13.000,7.000 ZM12.118,2.854 L11.264,3.670 C11.013,3.909 10.607,3.909 10.357,3.670 C10.107,3.431 10.107,3.043 10.357,2.804 L11.212,1.988 C11.462,1.749 11.868,1.749 12.118,1.988 C12.118,1.988 12.118,1.988 12.118,1.988 C12.369,2.227 12.369,2.614 12.119,2.853 C12.119,2.854 12.119,2.854 12.118,2.854 ZM7.391,2.624 C7.062,2.624 6.786,2.385 6.754,2.072 L6.751,2.013 L6.751,0.789 C6.751,0.450 7.038,0.176 7.392,0.176 C7.722,0.176 7.998,0.416 8.030,0.730 L8.033,0.789 L8.033,2.013 C8.033,2.351 7.746,2.625 7.391,2.624 ZM3.569,3.712 L3.520,3.670 L2.665,2.854 C2.413,2.617 2.410,2.229 2.659,1.988 C2.892,1.762 3.267,1.744 3.523,1.946 L3.572,1.988 L4.427,2.804 C4.427,2.804 4.682,3.429 4.433,3.670 C4.200,3.896 3.569,3.712 3.569,3.712 ZM0.000,6.000 L2.000,6.000 L2.000,7.000 L0.000,7.000 L0.000,6.000 ZM3.000,8.000 C3.000,5.634 3.737,4.020 7.000,4.000 C10.160,3.981 12.007,5.513 12.035,7.400 C12.000,8.000 12.000,14.000 12.000,14.000 L3.000,14.000 L3.000,8.000 ZM6.000,10.000 L7.000,10.000 L6.829,11.105 C6.660,11.402 6.774,11.774 7.085,11.936 C7.396,12.097 7.785,11.988 7.955,11.691 L9.237,9.447 C9.406,9.150 9.291,8.778 8.981,8.616 C8.886,8.567 8.781,8.542 8.674,8.542 L7.190,8.542 L7.955,7.202 C8.124,6.906 8.010,6.534 7.699,6.372 C7.388,6.210 6.999,6.320 6.829,6.616 L5.547,8.861 C5.378,9.158 5.689,9.838 6.000,10.000 ZM1.000,15.000 L14.000,15.000 C14.708,15.000 14.680,15.937 14.000,16.000 L1.000,16.000 C-0.211,15.999 -0.170,15.108 1.000,15.000 Z"/></svg>