<svg  xmlns="http://www.w3.org/2000/svg" xmlns:xlink="http://www.w3.org/1999/xlink" width="18px" height="18px"><defs><linearGradient id="PSgrad_0" x1="0%" x2="0%" y1="100%" y2="0%">  <stop offset="0%" stop-color="rgb(150,162,172)" stop-opacity="1" />  <stop offset="100%" stop-color="rgb(235,235,236)" stop-opacity="1" /></linearGradient></defs><path fill-rule="evenodd"  fill="url(#PSgrad_0)" d="M17.528,7.866 L15.574,8.377 C15.541,8.383 15.508,8.386 15.475,8.386 L15.475,8.386 C15.177,8.387 14.929,8.164 14.903,7.874 C14.878,7.582 15.084,7.320 15.377,7.272 L17.332,6.760 C17.480,6.735 17.633,6.769 17.756,6.854 C17.878,6.940 17.962,7.070 17.987,7.216 C18.041,7.520 17.836,7.812 17.528,7.866 ZM13.652,4.307 C13.545,4.434 13.386,4.507 13.218,4.507 C13.085,4.507 12.956,4.460 12.854,4.375 C12.616,4.174 12.585,3.823 12.784,3.586 L14.077,2.069 C14.173,1.955 14.311,1.884 14.461,1.871 C14.611,1.858 14.760,1.905 14.874,2.001 C15.115,2.199 15.145,2.554 14.945,2.791 L13.652,4.307 ZM13.217,4.507 C13.218,4.507 13.218,4.507 13.218,4.507 C13.218,4.507 13.219,4.507 13.219,4.507 L13.217,4.507 ZM13.665,14.779 L4.287,14.779 L4.287,9.397 C4.287,6.776 6.385,4.651 8.976,4.651 C11.566,4.651 13.665,6.776 13.665,9.397 L13.665,14.779 ZM8.977,2.975 L8.976,2.974 C8.825,2.973 8.681,2.913 8.574,2.808 C8.468,2.703 8.409,2.560 8.409,2.412 L8.409,0.549 C8.411,0.239 8.663,-0.013 8.977,-0.013 C9.291,-0.013 9.544,0.239 9.544,0.549 L9.544,2.413 C9.545,2.562 9.486,2.704 9.379,2.809 C9.273,2.915 9.129,2.974 8.977,2.975 ZM4.734,4.507 L4.734,4.506 C4.566,4.507 4.406,4.433 4.299,4.306 L3.020,2.871 C2.820,2.633 2.850,2.282 3.090,2.081 C3.205,1.985 3.353,1.938 3.503,1.951 C3.653,1.964 3.791,2.036 3.887,2.150 L5.165,3.584 C5.368,3.823 5.337,4.176 5.098,4.375 C4.997,4.460 4.867,4.507 4.734,4.507 ZM3.049,7.874 C3.023,8.164 2.775,8.387 2.477,8.386 L2.477,8.386 C2.444,8.386 2.410,8.383 2.378,8.377 L0.446,8.053 C0.138,7.996 -0.067,7.707 -0.013,7.404 C0.012,7.258 0.095,7.127 0.218,7.041 C0.341,6.956 0.494,6.922 0.643,6.947 L2.575,7.272 C2.868,7.320 3.074,7.582 3.049,7.874 ZM3.480,15.904 L14.475,15.904 C15.055,15.904 15.526,16.370 15.526,16.946 L15.525,16.947 C15.526,17.223 15.416,17.487 15.219,17.682 C15.021,17.877 14.753,17.988 14.472,17.989 L3.480,17.989 C3.199,17.988 2.931,17.877 2.734,17.682 C2.536,17.486 2.426,17.221 2.428,16.946 C2.428,16.370 2.900,15.904 3.480,15.904 Z"/></svg>