<svg  xmlns="http://www.w3.org/2000/svg" xmlns:xlink="http://www.w3.org/1999/xlink" width="18px" height="20px"><path fill-rule="evenodd"  fill="rgb(153, 153, 153)" d="M9.000,10.000 C11.848,10.000 14.125,7.778 14.125,5.000 C14.125,2.222 11.848,-0.000 9.000,-0.000 C6.153,-0.000 3.875,2.222 3.875,5.000 C3.875,7.778 6.153,10.000 9.000,10.000 L9.000,10.000 ZM12.529,11.220 L11.848,11.220 C10.932,11.667 9.915,11.885 8.888,11.885 C7.861,11.885 6.834,11.667 5.929,11.220 L5.359,11.220 C2.390,11.220 0.000,13.562 0.000,16.448 L0.000,18.115 C0.000,19.117 0.915,20.000 1.932,20.000 L16.068,20.000 C17.095,20.000 18.000,19.107 18.000,18.115 L18.000,16.448 C18.000,13.562 15.498,11.220 12.529,11.220 L12.529,11.220 Z"/></svg>