<svg  xmlns="http://www.w3.org/2000/svg" xmlns:xlink="http://www.w3.org/1999/xlink" width="16px" height="19px"><path fill-rule="evenodd"  fill="rgb(153, 153, 153)" d="M14.667,19.000 L1.333,19.000 C0.598,19.000 0.000,18.434 0.000,17.732 L0.000,8.232 C0.000,7.532 0.598,6.966 1.333,6.966 L14.667,6.966 C15.402,6.966 16.000,7.532 16.000,8.232 L16.000,17.732 C16.000,18.434 15.402,19.000 14.667,19.000 M8.000,10.134 C6.896,10.134 6.000,10.984 6.000,12.034 C6.000,12.736 6.404,13.342 7.000,13.671 L7.000,15.480 C7.000,16.025 7.448,16.470 8.000,16.470 C8.552,16.470 9.000,16.027 9.000,15.480 L9.000,13.671 C9.596,13.342 10.000,12.736 10.000,12.034 C10.000,10.984 9.104,10.134 8.000,10.134 M8.000,1.900 C5.792,1.900 4.000,3.601 4.000,5.700 L2.000,5.700 C2.000,2.551 4.685,-0.000 8.000,-0.000 C11.315,-0.000 14.000,2.551 14.000,5.700 L12.000,5.700 C12.000,3.601 10.208,1.900 8.000,1.900 "/></svg>