<svg  xmlns="http://www.w3.org/2000/svg" xmlns:xlink="http://www.w3.org/1999/xlink" width="18px" height="18px"><defs><linearGradient id="PSgrad_0" x1="0%" x2="0%" y1="100%" y2="0%">  <stop offset="0%" stop-color="rgb(40,65,177)" stop-opacity="1" />  <stop offset="100%" stop-color="rgb(1,240,255)" stop-opacity="1" /></linearGradient></defs><path fill-rule="evenodd"  fill="url(#PSgrad_0)" d="M16.000,18.000 L14.000,18.000 C12.895,18.000 12.000,17.105 12.000,16.000 L12.000,2.000 C12.000,0.896 12.895,0.000 14.000,0.000 L16.000,0.000 C17.105,0.000 18.000,0.896 18.000,2.000 L18.000,16.000 C18.000,17.105 17.105,18.000 16.000,18.000 ZM16.000,3.000 C16.000,2.448 15.552,2.000 15.000,2.000 C14.448,2.000 14.000,2.448 14.000,3.000 L14.000,4.000 C14.000,4.552 14.448,5.000 15.000,5.000 C15.552,5.000 16.000,4.552 16.000,4.000 L16.000,3.000 ZM8.000,18.000 L2.000,18.000 C0.895,18.000 -0.000,17.105 -0.000,16.000 L-0.000,2.000 C-0.000,0.896 0.895,0.000 2.000,0.000 L8.000,0.000 C9.105,0.000 10.000,0.896 10.000,2.000 L10.000,16.000 C10.000,17.105 9.105,18.000 8.000,18.000 ZM4.000,3.000 C4.000,2.448 3.552,2.000 3.000,2.000 C2.448,2.000 2.000,2.448 2.000,3.000 L2.000,4.000 C2.000,4.552 2.448,5.000 3.000,5.000 C3.552,5.000 4.000,4.552 4.000,4.000 L4.000,3.000 ZM7.000,3.000 C7.000,2.448 6.552,2.000 6.000,2.000 C5.448,2.000 5.000,2.448 5.000,3.000 L5.000,4.000 C5.000,4.552 5.448,5.000 6.000,5.000 C6.552,5.000 7.000,4.552 7.000,4.000 L7.000,3.000 Z"/></svg>