<svg  xmlns="http://www.w3.org/2000/svg" xmlns:xlink="http://www.w3.org/1999/xlink" width="18px" height="18px"><defs><linearGradient id="PSgrad_0" x1="0%" x2="0%" y1="100%" y2="0%">  <stop offset="0%" stop-color="rgb(150,162,172)" stop-opacity="1" />  <stop offset="100%" stop-color="rgb(235,235,236)" stop-opacity="1" /></linearGradient></defs><path fill-rule="evenodd"  fill="url(#PSgrad_0)" d="M16.978,12.432 C16.410,12.432 15.952,12.891 15.952,13.457 L15.952,13.956 C15.776,14.384 15.519,14.347 15.519,14.347 L14.467,14.347 C13.602,14.455 13.305,13.511 13.305,13.511 L13.066,12.213 L16.633,10.984 C18.123,10.623 18.183,9.745 17.766,8.512 L15.281,1.329 C14.925,0.302 13.842,-0.257 12.862,0.083 L3.733,3.230 C2.751,3.570 2.244,4.676 2.600,5.702 L3.115,7.197 L1.965,7.579 L1.884,7.347 C1.692,6.792 1.127,6.485 0.621,6.660 C0.116,6.835 -0.138,7.426 0.054,7.982 L1.684,12.684 C1.876,13.239 2.442,13.546 2.947,13.371 C3.452,13.196 3.707,12.605 3.513,12.049 L3.404,11.733 L4.551,11.350 L5.081,12.881 C5.436,13.908 6.519,14.467 7.501,14.128 L11.098,12.887 L11.520,14.805 C11.736,16.018 12.898,16.152 12.898,16.152 L15.493,16.152 C15.743,16.195 15.881,16.431 15.953,16.648 L15.953,16.990 C15.953,17.555 16.412,18.015 16.980,18.015 C17.548,18.015 18.006,17.555 18.006,16.990 L18.006,13.457 C18.004,12.891 17.546,12.432 16.978,12.432 L16.978,12.432 ZM12.464,2.803 C13.222,2.803 13.834,3.415 13.834,4.170 C13.834,4.924 13.222,5.536 12.464,5.536 C11.708,5.536 11.096,4.924 11.096,4.170 C11.094,3.415 11.708,2.803 12.464,2.803 L12.464,2.803 Z"/></svg>