<svg  xmlns="http://www.w3.org/2000/svg" xmlns:xlink="http://www.w3.org/1999/xlink" width="18px" height="18px"><defs><linearGradient id="PSgrad_0" x1="0%" x2="0%" y1="100%" y2="0%">  <stop offset="0%" stop-color="rgb(150,162,172)" stop-opacity="1" />  <stop offset="100%" stop-color="rgb(235,235,236)" stop-opacity="1" /></linearGradient></defs><path fill-rule="evenodd"  fill="url(#PSgrad_0)" d="M9.000,18.000 C4.029,18.000 -0.000,13.971 -0.000,9.000 C-0.000,4.029 4.029,-0.000 9.000,-0.000 C13.971,-0.000 18.000,4.029 18.000,9.000 C18.000,13.971 13.971,18.000 9.000,18.000 ZM9.777,3.934 L5.974,3.934 L5.974,14.981 L8.328,14.981 L8.328,11.130 L9.541,11.130 C10.787,11.159 11.825,10.832 12.655,10.150 C13.485,9.467 13.900,8.560 13.900,7.428 C13.900,5.099 12.526,3.934 9.777,3.934 ZM9.348,9.325 L8.328,9.325 L8.328,5.759 L9.370,5.759 C10.740,5.759 11.425,6.347 11.425,7.521 C11.425,8.724 10.733,9.325 9.348,9.325 Z"/></svg>