<svg xmlns="http://www.w3.org/2000/svg" width="23.077" height="29.622" viewBox="0 0 20.938 26.875">
  <defs>
    <style>
      .cls-1 {
        fill: #198bff;
        fill-rule: evenodd;
      }
    </style>
  </defs>
  <path id="形状_647" data-name="形状 647" class="cls-1" d="M15,28.444A10.532,10.532,0,0,1,4.543,17.861C4.543,10.13,13.273,1.555,15,1.555c1.455,0,10.457,9.1,10.457,16.305A10.533,10.533,0,0,1,15,28.444h0ZM14.97,3.6c-1.758,1.258-8.533,7.732-8.533,14.249a8.578,8.578,0,1,0,17.154,0C23.578,12.062,16.7,4.992,14.97,3.6h0ZM19.864,22.83a6.663,6.663,0,0,1-9.5,0l9.5-9.617a6.861,6.861,0,0,1,0,9.617h0Zm0,0" transform="translate(-4.531 -1.563)"/>
</svg>
