<svg  xmlns="http://www.w3.org/2000/svg" xmlns:xlink="http://www.w3.org/1999/xlink" width="18px" height="18px"><defs><linearGradient id="PSgrad_0" x1="0%" x2="0%" y1="100%" y2="0%">  <stop offset="0%" stop-color="rgb(150,162,172)" stop-opacity="1" />  <stop offset="100%" stop-color="rgb(235,235,236)" stop-opacity="1" /></linearGradient></defs><path fill-rule="evenodd"  fill="url(#PSgrad_0)" d="M17.799,7.137 C17.703,6.599 17.402,6.251 17.032,6.251 L17.018,6.251 L16.940,6.251 C15.650,6.251 14.600,5.139 14.600,3.773 C14.600,3.323 14.803,2.829 14.804,2.825 C15.003,2.351 14.850,1.768 14.447,1.470 L14.425,1.454 L12.176,0.130 L12.153,0.119 C12.019,0.058 11.873,0.027 11.717,0.027 C11.397,0.027 11.083,0.162 10.877,0.389 C10.602,0.688 9.736,1.468 9.037,1.468 C8.332,1.468 7.461,0.673 7.185,0.368 C6.978,0.136 6.662,-0.001 6.338,-0.001 C6.186,-0.001 6.042,0.029 5.912,0.088 L5.887,0.099 L3.558,1.454 L3.535,1.470 C3.132,1.768 2.978,2.350 3.177,2.825 C3.179,2.829 3.380,3.323 3.380,3.773 C3.380,5.139 2.331,6.251 1.041,6.251 L0.963,6.251 L0.948,6.251 C0.579,6.251 0.278,6.599 0.182,7.137 C0.175,7.180 -0.006,8.200 -0.006,9.004 C-0.006,9.809 0.175,10.829 0.182,10.872 C0.278,11.410 0.579,11.757 0.948,11.757 L0.963,11.757 L1.041,11.757 C2.331,11.757 3.380,12.869 3.380,14.235 C3.380,14.686 3.179,15.179 3.177,15.183 C2.978,15.658 3.131,16.240 3.533,16.538 L3.554,16.554 L5.761,17.862 L5.785,17.873 C5.918,17.934 6.063,17.966 6.218,17.966 C6.542,17.966 6.858,17.825 7.063,17.589 C7.321,17.291 8.222,16.441 8.943,16.441 C9.670,16.441 10.557,17.286 10.837,17.611 C11.042,17.851 11.361,17.995 11.688,17.995 C11.839,17.995 11.982,17.965 12.113,17.905 L12.137,17.894 L14.425,16.554 L14.447,16.538 C14.850,16.240 15.003,15.658 14.805,15.184 C14.802,15.179 14.600,14.685 14.600,14.235 C14.600,12.869 15.650,11.757 16.940,11.757 L17.018,11.757 L17.031,11.757 C17.401,11.757 17.703,11.410 17.799,10.872 C17.807,10.829 17.988,9.809 17.988,9.004 C17.988,8.200 17.807,7.180 17.799,7.137 ZM8.951,11.833 C7.463,11.833 6.253,10.558 6.253,8.992 C6.253,7.425 7.463,6.150 8.951,6.150 C10.439,6.150 11.650,7.425 11.650,8.992 C11.650,10.558 10.439,11.833 8.951,11.833 Z"/></svg>