<svg  xmlns="http://www.w3.org/2000/svg" xmlns:xlink="http://www.w3.org/1999/xlink" width="14px" height="18px"><defs><linearGradient id="PSgrad_0" x1="0%" x2="0%" y1="100%" y2="0%">  <stop offset="0%" stop-color="rgb(40,65,177)" stop-opacity="1" />  <stop offset="100%" stop-color="rgb(1,240,255)" stop-opacity="1" /></linearGradient></defs><path fill-rule="evenodd"  fill="url(#PSgrad_0)" d="M10.591,13.010 C10.591,13.010 3.526,12.949 3.310,12.949 C2.800,12.949 -0.000,9.512 -0.000,7.000 C-0.000,3.134 3.134,0.000 7.000,0.000 C10.866,0.000 14.000,3.134 14.000,7.000 C14.000,9.553 10.591,13.010 10.591,13.010 ZM11.337,3.335 C10.609,2.607 9.561,2.248 8.496,2.248 C8.159,2.248 7.913,2.484 7.913,2.809 C7.914,3.133 8.159,3.370 8.496,3.370 C9.197,3.370 9.862,3.642 10.481,4.194 C11.100,4.747 11.410,5.431 11.410,6.246 C11.410,6.526 11.655,6.807 11.992,6.807 C12.329,6.807 12.575,6.526 12.575,6.246 C12.575,5.027 12.165,4.063 11.337,3.335 ZM5.000,14.000 L9.000,14.000 C9.552,14.000 10.000,14.448 10.000,15.000 C10.000,15.552 9.552,16.000 9.000,16.000 L5.000,16.000 C4.448,16.000 4.000,15.552 4.000,15.000 C4.000,14.448 4.448,14.000 5.000,14.000 ZM5.500,17.000 L8.500,17.000 C8.776,17.000 9.000,17.224 9.000,17.500 C9.000,17.776 8.776,18.000 8.500,18.000 L5.500,18.000 C5.224,18.000 5.000,17.776 5.000,17.500 C5.000,17.224 5.224,17.000 5.500,17.000 Z"/></svg>