<svg xmlns="http://www.w3.org/2000/svg" width="30" height="30" viewBox="0 0 25.562 25.562">
  <defs>
    <style>
      .cls-1 {
        fill: #7494cc;
        fill-rule: evenodd;
      }
    </style>
  </defs>
  <path id="形状_647" data-name="形状 647" class="cls-1" d="M15,7.818a7.186,7.186,0,1,1-5.077,2.1A7.13,7.13,0,0,1,15,7.818m0-1A8.18,8.18,0,1,0,23.18,15,8.178,8.178,0,0,0,15,6.82h0Zm0.025-.948h-0.05a0.724,0.724,0,0,1-.723-0.723V2.955a0.724,0.724,0,0,1,.723-0.723h0.05a0.724,0.724,0,0,1,.723.723V5.15a0.724,0.724,0,0,1-.723.723h0ZM8.566,8.526l-0.035.035a0.728,0.728,0,0,1-1.022,0L5.953,7.01a0.728,0.728,0,0,1,0-1.022l0.035-.035a0.729,0.729,0,0,1,1.023,0L8.561,7.5a0.724,0.724,0,0,1,.005,1.022h0ZM5.873,14.975v0.05a0.724,0.724,0,0,1-.723.723H2.955a0.724,0.724,0,0,1-.723-0.723v-0.05a0.724,0.724,0,0,1,.723-0.723H5.15a0.724,0.724,0,0,1,.723.723h0Zm2.653,6.459,0.035,0.035a0.729,0.729,0,0,1,0,1.022L7.01,24.042a0.729,0.729,0,0,1-1.023,0l-0.035-.035a0.728,0.728,0,0,1,0-1.022L7.5,21.434a0.728,0.728,0,0,1,1.023,0h0Zm6.449,2.693h0.05a0.724,0.724,0,0,1,.723.723v2.194a0.724,0.724,0,0,1-.723.723h-0.05a0.724,0.724,0,0,1-.723-0.723V24.85a0.724,0.724,0,0,1,.723-0.723h0Zm6.459-2.653,0.035-.035a0.728,0.728,0,0,1,1.022,0l1.551,1.551a0.729,0.729,0,0,1,0,1.022l-0.035.035a0.728,0.728,0,0,1-1.022,0L21.434,22.5a0.728,0.728,0,0,1,0-1.022h0Zm2.693-6.449v-0.05a0.724,0.724,0,0,1,.723-0.723h2.194a0.724,0.724,0,0,1,.723.723v0.05a0.724,0.724,0,0,1-.723.723H24.85a0.724,0.724,0,0,1-.723-0.723h0ZM21.474,8.566l-0.035-.035a0.729,0.729,0,0,1,0-1.022L22.99,5.958a0.728,0.728,0,0,1,1.022,0l0.035,0.035a0.729,0.729,0,0,1,0,1.022L22.5,8.566a0.728,0.728,0,0,1-1.022,0h0Zm0,0M15,6.82A8.18,8.18,0,1,0,15,23.18V6.82Zm0,0" transform="translate(-2.219 -2.219)"/>
</svg>
